{
    "asset" : {
        "generator" : "Khronos glTF Blender I/O v3.2.43",
        "version" : "2.0"
    },
    "scene" : 0,
    "scenes" : [
        {
            "name" : "Scene",
            "nodes" : [
                0
            ]
        }
    ],
    "nodes" : [
        {
            "mesh" : 0,
            "name" : "\u041a\u0443\u0431",
            "scale" : [
                200,
                12.930000305175781,
                200
            ]
        }
    ],
    "materials" : [
        {
            "doubleSided" : true,
            "name" : "\u041c\u0430\u0442\u0435\u0440\u0438\u0430\u043b",
            "pbrMetallicRoughness" : {
                "roughnessFactor" : 0.5
            }
        }
    ],
    "meshes" : [
        {
            "name" : "\u041a\u0443\u0431",
            "primitives" : [
                {
                    "attributes" : {
                        "POSITION" : 0,
                        "NORMAL" : 1,
                        "TEXCOORD_0" : 2,
                        "COLOR_0" : 3
                    },
                    "indices" : 4,
                    "material" : 0
                }
            ]
        }
    ],
    "accessors" : [
        {
            "bufferView" : 0,
            "componentType" : 5126,
            "count" : 2240,
            "max" : [
                1.3995232582092285,
                1.4788800477981567,
                1.2363860607147217
            ],
            "min" : [
                -1.5635384321212769,
                -27.29631996154785,
                -1.2980413436889648
            ],
            "type" : "VEC3"
        },
        {
            "bufferView" : 1,
            "componentType" : 5126,
            "count" : 2240,
            "type" : "VEC3"
        },
        {
            "bufferView" : 2,
            "componentType" : 5126,
            "count" : 2240,
            "type" : "VEC2"
        },
        {
            "bufferView" : 3,
            "componentType" : 5123,
            "count" : 2240,
            "normalized" : true,
            "type" : "VEC4"
        },
        {
            "bufferView" : 4,
            "componentType" : 5123,
            "count" : 3360,
            "type" : "SCALAR"
        }
    ],
    "bufferViews" : [
        {
            "buffer" : 0,
            "byteLength" : 26880,
            "byteOffset" : 0
        },
        {
            "buffer" : 0,
            "byteLength" : 26880,
            "byteOffset" : 26880
        },
        {
            "buffer" : 0,
            "byteLength" : 17920,
            "byteOffset" : 53760
        },
        {
            "buffer" : 0,
            "byteLength" : 17920,
            "byteOffset" : 71680
        },
        {
            "buffer" : 0,
            "byteLength" : 6720,
            "byteOffset" : 89600
        }
    ],
    "buffers" : [
        {
            "byteLength" : 96320,
            "uri" : "data:application/octet-stream;base64,"
        }
    ]
}
