{
    "asset" : {
        "generator" : "Khronos glTF Blender I/O v3.2.43",
        "version" : "2.0"
    },
    "scene" : 0,
    "scenes" : [
        {
            "name" : "Scene",
            "nodes" : [
                0
            ]
        }
    ],
    "nodes" : [
        {
            "mesh" : 0,
            "name" : "Oak"
        }
    ],
    "materials" : [
        {
            "doubleSided" : true,
            "name" : "OakTree_Leaves",
            "pbrMetallicRoughness" : {}
        },
        {
            "doubleSided" : true,
            "name" : "OakTree_Trunk",
            "pbrMetallicRoughness" : {}
        }
    ],
    "meshes" : [
        {
            "name" : "Cylinder.004",
            "primitives" : [
                {
                    "attributes" : {
                        "POSITION" : 0,
                        "NORMAL" : 1
                    },
                    "indices" : 2,
                    "material" : 0
                },
                {
                    "attributes" : {
                        "POSITION" : 3,
                        "NORMAL" : 4
                    },
                    "indices" : 5,
                    "material" : 0
                },
                {
                    "attributes" : {
                        "POSITION" : 6,
                        "NORMAL" : 7
                    },
                    "indices" : 8,
                    "material" : 1
                }
            ]
        }
    ],
    "accessors" : [
        {
            "bufferView" : 0,
            "componentType" : 5126,
            "count" : 2288,
            "max" : [
                1.9364501237869263,
                5.239493370056152,
                1.000609278678894
            ],
            "min" : [
                -2.0198557376861572,
                1.853424072265625,
                -1.3223962783813477
            ],
            "type" : "VEC3"
        },
        {
            "bufferView" : 1,
            "componentType" : 5126,
            "count" : 2288,
            "type" : "VEC3"
        },
        {
            "bufferView" : 2,
            "componentType" : 5123,
            "count" : 2640,
            "type" : "SCALAR"
        },
        {
            "bufferView" : 3,
            "componentType" : 5126,
            "count" : 2080,
            "max" : [
                1.8155914545059204,
                5.304503917694092,
                1.5145063400268555
            ],
            "min" : [
                -1.7239748239517212,
                1.8487582206726074,
                -1.2520031929016113
            ],
            "type" : "VEC3"
        },
        {
            "bufferView" : 4,
            "componentType" : 5126,
            "count" : 2080,
            "type" : "VEC3"
        },
        {
            "bufferView" : 5,
            "componentType" : 5123,
            "count" : 2400,
            "type" : "SCALAR"
        },
        {
            "bufferView" : 6,
            "componentType" : 5126,
            "count" : 584,
            "max" : [
                1.0352898836135864,
                4.444725513458252,
                0.8365893959999084
            ],
            "min" : [
                -1.0380321741104126,
                -0.009936481714248657,
                -0.6709676384925842
            ],
            "type" : "VEC3"
        },
        {
            "bufferView" : 7,
            "componentType" : 5126,
            "count" : 584,
            "type" : "VEC3"
        },
        {
            "bufferView" : 8,
            "componentType" : 5123,
            "count" : 888,
            "type" : "SCALAR"
        }
    ],
    "bufferViews" : [
        {
            "buffer" : 0,
            "byteLength" : 27456,
            "byteOffset" : 0
        },
        {
            "buffer" : 0,
            "byteLength" : 27456,
            "byteOffset" : 27456
        },
        {
            "buffer" : 0,
            "byteLength" : 5280,
            "byteOffset" : 54912
        },
        {
            "buffer" : 0,
            "byteLength" : 24960,
            "byteOffset" : 60192
        },
        {
            "buffer" : 0,
            "byteLength" : 24960,
            "byteOffset" : 85152
        },
        {
            "buffer" : 0,
            "byteLength" : 4800,
            "byteOffset" : 110112
        },
        {
            "buffer" : 0,
            "byteLength" : 7008,
            "byteOffset" : 114912
        },
        {
            "buffer" : 0,
            "byteLength" : 7008,
            "byteOffset" : 121920
        },
        {
            "buffer" : 0,
            "byteLength" : 1776,
            "byteOffset" : 128928
        }
    ],
    "buffers" : [
        {
            "byteLength" : 130704,
            "uri" : "data:application/octet-stream;base64,"
        }
    ]
}
