{
    "asset" : {
        "generator" : "Khronos glTF Blender I/O v3.2.43",
        "version" : "2.0"
    },
    "scene" : 0,
    "scenes" : [
        {
            "name" : "Scene",
            "nodes" : [
                0
            ]
        }
    ],
    "nodes" : [
        {
            "mesh" : 0,
            "name" : "SapinHiver.015",
            "rotation" : [
                -0.0037908221129328012,
                0.019508367404341698,
                0.02009817585349083,
                0.9996005296707153
            ],
            "scale" : [
                0.6314398646354675,
                0.6314398646354675,
                0.6314398646354675
            ],
            "translation" : [
                -0.319912314414978,
                1.7468888759613037,
                -0.028644323348999023
            ]
        }
    ],
    "materials" : [
        {
            "doubleSided" : true,
            "name" : "PineTree_Trunk",
            "pbrMetallicRoughness" : {}
        },
        {
            "doubleSided" : true,
            "name" : "PineTree_Leaves",
            "pbrMetallicRoughness" : {}
        }
    ],
    "meshes" : [
        {
            "name" : "Cylinder.034",
            "primitives" : [
                {
                    "attributes" : {
                        "POSITION" : 0,
                        "NORMAL" : 1
                    },
                    "indices" : 2,
                    "material" : 0
                },
                {
                    "attributes" : {
                        "POSITION" : 3,
                        "NORMAL" : 4
                    },
                    "indices" : 5,
                    "material" : 1
                }
            ]
        }
    ],
    "accessors" : [
        {
            "bufferView" : 0,
            "componentType" : 5126,
            "count" : 48,
            "max" : [
                0.35331302881240845,
                -0.8930003643035889,
                0.3533130884170532
            ],
            "min" : [
                -0.3533130884170532,
                -2.893000364303589,
                -0.3533130884170532
            ],
            "type" : "VEC3"
        },
        {
            "bufferView" : 1,
            "componentType" : 5126,
            "count" : 48,
            "type" : "VEC3"
        },
        {
            "bufferView" : 2,
            "componentType" : 5123,
            "count" : 84,
            "type" : "SCALAR"
        },
        {
            "bufferView" : 3,
            "componentType" : 5126,
            "count" : 400,
            "max" : [
                1.648352026939392,
                5.03761100769043,
                1.648352026939392
            ],
            "min" : [
                -1.648352026939392,
                -1.1949553489685059,
                -1.648352026939392
            ],
            "type" : "VEC3"
        },
        {
            "bufferView" : 4,
            "componentType" : 5126,
            "count" : 400,
            "type" : "VEC3"
        },
        {
            "bufferView" : 5,
            "componentType" : 5123,
            "count" : 612,
            "type" : "SCALAR"
        }
    ],
    "bufferViews" : [
        {
            "buffer" : 0,
            "byteLength" : 576,
            "byteOffset" : 0
        },
        {
            "buffer" : 0,
            "byteLength" : 576,
            "byteOffset" : 576
        },
        {
            "buffer" : 0,
            "byteLength" : 168,
            "byteOffset" : 1152
        },
        {
            "buffer" : 0,
            "byteLength" : 4800,
            "byteOffset" : 1320
        },
        {
            "buffer" : 0,
            "byteLength" : 4800,
            "byteOffset" : 6120
        },
        {
            "buffer" : 0,
            "byteLength" : 1224,
            "byteOffset" : 10920
        }
    ],
    "buffers" : [
        {
            "byteLength" : 12144,
            "uri" : "data:application/octet-stream;base64,"
        }
    ]
}
