{
    "asset" : {
        "generator" : "Khronos glTF Blender I/O v3.2.43",
        "version" : "2.0"
    },
    "scene" : 0,
    "scenes" : [
        {
            "name" : "Scene",
            "nodes" : [
                0
            ]
        }
    ],
    "nodes" : [
        {
            "mesh" : 0,
            "name" : "Poplar"
        }
    ],
    "materials" : [
        {
            "doubleSided" : true,
            "name" : "PoplarTree_Leaves1",
            "pbrMetallicRoughness" : {}
        },
        {
            "doubleSided" : true,
            "name" : "PoplarTree_Leaves2",
            "pbrMetallicRoughness" : {}
        },
        {
            "doubleSided" : true,
            "name" : "PoplarTree_Trunk",
            "pbrMetallicRoughness" : {}
        }
    ],
    "meshes" : [
        {
            "name" : "Cylinder.003",
            "primitives" : [
                {
                    "attributes" : {
                        "POSITION" : 0,
                        "NORMAL" : 1
                    },
                    "indices" : 2,
                    "material" : 0
                },
                {
                    "attributes" : {
                        "POSITION" : 3,
                        "NORMAL" : 4
                    },
                    "indices" : 5,
                    "material" : 1
                },
                {
                    "attributes" : {
                        "POSITION" : 6,
                        "NORMAL" : 7
                    },
                    "indices" : 8,
                    "material" : 2
                }
            ]
        }
    ],
    "accessors" : [
        {
            "bufferView" : 0,
            "componentType" : 5126,
            "count" : 2288,
            "max" : [
                1.2422665357589722,
                5.343594551086426,
                1.1880509853363037
            ],
            "min" : [
                -1.3848669528961182,
                1.0494656562805176,
                -1.4862316846847534
            ],
            "type" : "VEC3"
        },
        {
            "bufferView" : 1,
            "componentType" : 5126,
            "count" : 2288,
            "type" : "VEC3"
        },
        {
            "bufferView" : 2,
            "componentType" : 5123,
            "count" : 2640,
            "type" : "SCALAR"
        },
        {
            "bufferView" : 3,
            "componentType" : 5126,
            "count" : 2080,
            "max" : [
                1.3091940879821777,
                5.811541557312012,
                1.4766767024993896
            ],
            "min" : [
                -1.369232416152954,
                1.0442085266113281,
                -1.3639384508132935
            ],
            "type" : "VEC3"
        },
        {
            "bufferView" : 4,
            "componentType" : 5126,
            "count" : 2080,
            "type" : "VEC3"
        },
        {
            "bufferView" : 5,
            "componentType" : 5123,
            "count" : 2400,
            "type" : "SCALAR"
        },
        {
            "bufferView" : 6,
            "componentType" : 5126,
            "count" : 128,
            "max" : [
                0.2517479658126831,
                2.3840842247009277,
                0.25274789333343506
            ],
            "min" : [
                -0.2517479658126831,
                -0.008084535598754883,
                -0.2625182867050171
            ],
            "type" : "VEC3"
        },
        {
            "bufferView" : 7,
            "componentType" : 5126,
            "count" : 128,
            "type" : "VEC3"
        },
        {
            "bufferView" : 8,
            "componentType" : 5123,
            "count" : 192,
            "type" : "SCALAR"
        }
    ],
    "bufferViews" : [
        {
            "buffer" : 0,
            "byteLength" : 27456,
            "byteOffset" : 0
        },
        {
            "buffer" : 0,
            "byteLength" : 27456,
            "byteOffset" : 27456
        },
        {
            "buffer" : 0,
            "byteLength" : 5280,
            "byteOffset" : 54912
        },
        {
            "buffer" : 0,
            "byteLength" : 24960,
            "byteOffset" : 60192
        },
        {
            "buffer" : 0,
            "byteLength" : 24960,
            "byteOffset" : 85152
        },
        {
            "buffer" : 0,
            "byteLength" : 4800,
            "byteOffset" : 110112
        },
        {
            "buffer" : 0,
            "byteLength" : 1536,
            "byteOffset" : 114912
        },
        {
            "buffer" : 0,
            "byteLength" : 1536,
            "byteOffset" : 116448
        },
        {
            "buffer" : 0,
            "byteLength" : 384,
            "byteOffset" : 117984
        }
    ],
    "buffers" : [
        {
            "byteLength" : 118368,
            "uri" : "data:application/octet-stream;base64,"
        }
    ]
}
